<svg xmlns="http://www.w3.org/2000/svg" width="36" height="36" viewBox="0 0 36 36">
  <path d="M17.5,1L18.5,1A17,17 0,0 1,35.5 18L35.5,18A17,17 0,0 1,18.5 35L17.5,35A17,17 0,0 1,0.5 18L0.5,18A17,17 0,0 1,17.5 1z" fill="#ffffff" />
  <path d="M17.5,1L18.5,1A17,17 0,0 1,35.5 18L35.5,18A17,17 0,0 1,18.5 35L17.5,35A17,17 0,0 1,0.5 18L0.5,18A17,17 0,0 1,17.5 1z" fill="none" stroke="#F0F0F0" stroke-width="1" />
  <path d="M25.82,20.223L24.154,18.637V16.535C24.152,15.082 23.585,13.681 22.562,12.604C21.539,11.527 20.133,10.849 18.615,10.702V9.5H17.385V10.702C15.867,10.849 14.461,11.527 13.438,12.604C12.415,13.681 11.848,15.082 11.846,16.535V18.637L10.18,20.223C10.065,20.333 10,20.483 10,20.638V22.397C10,22.552 10.065,22.701 10.18,22.811C10.296,22.921 10.452,22.983 10.615,22.983H14.923V23.569C14.923,24.346 15.247,25.092 15.824,25.642C16.401,26.191 17.184,26.5 18,26.5C18.816,26.5 19.599,26.191 20.176,25.642C20.753,25.092 21.077,24.346 21.077,23.569V22.983H25.385C25.548,22.983 25.704,22.921 25.82,22.811C25.935,22.701 26,22.552 26,22.397V20.638C26,20.483 25.935,20.333 25.82,20.223ZM19.846,23.569C19.846,24.035 19.652,24.483 19.305,24.813C18.959,25.142 18.49,25.328 18,25.328C17.51,25.328 17.041,25.142 16.695,24.813C16.348,24.483 16.154,24.035 16.154,23.569V22.983H19.846V23.569Z" fill="#15613F" />
</svg>